<svg xmlns="http://www.w3.org/2000/svg" viewBox="0 0 24 24" fill="none">
  <g stroke="#635f55" stroke-width="1.6" stroke-linecap="round" stroke-linejoin="round">
    <circle cx="12" cy="12" r="8.5"/>
    <path d="M8.6 9.5C8.6 9.5 9.1 8.6 10 9.1"/>
    <path d="M14 9.1C14.9 8.6 15.4 9.5 15.4 9.5"/>
    <path d="M8.1 15.9C8.6 15.4 9.4 16.2 10 15.8C10.6 15.4 11.4 16.2 12 15.8C12.6 15.4 13.4 16.2 14 15.8C14.6 15.4 15.4 16.2 15.9 15.9"/>
  </g>
  <circle cx="9.6" cy="11.5" r="1.2" fill="#635f55"/>
  <circle cx="14.4" cy="11.5" r="1.2" fill="#635f55"/>
  <path d="M17.5 7.4C17.5 8.1 16.9 8.6 16.3 8.6C15.6 8.6 16.3 7.4 16.3 7.4C16.3 7.4 16.9 6.8 17.5 7.4Z" fill="rgba(177,179,171,0.22)" stroke="#8f948a" stroke-width="1.15" stroke-linecap="round" stroke-linejoin="round"/>
</svg>
