<svg width="1200" height="720" viewBox="0 0 1200 720" fill="none" xmlns="http://www.w3.org/2000/svg">
  <rect width="1200" height="720" fill="#E9E1D4"/>
  <ellipse cx="216" cy="128" rx="224" ry="148" fill="#F7F2EA" fill-opacity="0.72"/>
  <ellipse cx="980" cy="112" rx="196" ry="132" fill="#F1E8DB" fill-opacity="0.68"/>
  <ellipse cx="784" cy="388" rx="356" ry="178" fill="#E2D4C0" fill-opacity="0.72"/>
  <ellipse cx="348" cy="470" rx="268" ry="156" fill="#F7F1E7" fill-opacity="0.84"/>
  <path d="M876 176C930 224 980 292 1008 368C1028 424 1034 486 1020 554" stroke="#CDBDA6" stroke-opacity="0.52" stroke-width="2"/>
  <path d="M912 184C854 254 822 330 814 414C808 474 816 530 840 586" stroke="#B8A78E" stroke-opacity="0.44" stroke-width="2"/>
  <path d="M300 206C350 248 392 298 424 362C448 408 464 466 470 526" stroke="#D8CAB7" stroke-opacity="0.48" stroke-width="2"/>
  <path d="M334 214C286 288 258 352 250 432C244 492 252 548 278 602" stroke="#C4B39B" stroke-opacity="0.42" stroke-width="2"/>
</svg>
